<?xml version="1.0" encoding="utf-8"?><svg xmlns="http://www.w3.org/2000/svg" xmlns:xlink="http://www.w3.org/1999/xlink"><symbol viewBox="0 0 32 32" id="iconfinder_music_edit_103638" xmlns="http://www.w3.org/2000/svg"><path fill="none" d="M0 0h32v32H0z"/><path d="M28 15.518V4L8 0v16.35A5.95 5.95 0 006 16c-3.316 0-6 2.691-6 6 0 3.314 2.684 6 6 6 3.311 0 6-2.686 6-6V6l12 2v6.059A8.935 8.935 0 0023 14c-4.973 0-9 4.027-9 9a9 9 0 1018 0 8.99 8.99 0 00-4-7.482zm-5 14.365A6.898 6.898 0 0116.115 23 6.898 6.898 0 0123 16.115 6.898 6.898 0 0129.883 23 6.898 6.898 0 0123 29.883z"/><path d="M22 27h-3v-3zm6-6l-5 5-3-3 5-5z"/></symbol><symbol viewBox="0 0 512 512" id="svg" xmlns="http://www.w3.org/2000/svg"><path d="M494.142 80.275L426.066 9.301a30.308 30.308 0 00-12.637-7.857V92.13h87.733a30.119 30.119 0 00-7.02-11.855z"/><path d="M398.413 122.148c-8.286 0-15.011-6.715-15.011-15.011 0-.07.01-.14.02-.22-.01-.07-.02-.14-.02-.22V0h-248.52C118.23 0 104.68 13.55 104.68 30.212v69.276h149.041c28.51 0 51.716 23.194 51.716 51.716v99.269c0 28.51-23.207 51.716-51.716 51.716h-149.04v179.609c0 16.652 13.55 30.202 30.202 30.202h337.464c16.652 0 30.202-13.55 30.202-30.202v-359.65H398.413z"/><path d="M238.287 124.74H48.1c-21.315 0-38.648 17.333-38.648 38.648v74.184c0 21.305 17.333 38.648 38.648 38.648h190.187c21.305 0 38.648-17.343 38.648-38.648v-74.184c0-21.315-17.342-38.648-38.648-38.648zM102.275 232.666c-4.729 3.938-10.933 5.905-18.608 5.905-6.65 0-12.441-1.37-17.376-4.112-4.935-2.741-7.401-5.825-7.401-9.254 0-1.918.701-3.838 2.107-5.757 1.403-1.918 3.032-2.879 4.884-2.879 1.028 0 2.175.416 3.443 1.247a24.86 24.86 0 013.496 2.763c1.062 1.012 2.553 1.932 4.472 2.763a15.067 15.067 0 006.066 1.247c2.673 0 5.003-.565 6.991-1.696 1.986-1.131 2.981-2.827 2.981-5.089 0-2.262-1.115-4.249-3.341-5.962-2.229-1.712-4.936-3.272-8.122-4.678a129.921 129.921 0 01-9.613-4.729c-3.222-1.747-5.946-4.231-8.173-7.453-2.229-3.221-3.341-7.059-3.341-11.514 0-7.266 2.57-12.697 7.711-16.296s11.343-5.398 18.608-5.398c1.781 0 3.65.106 5.604.318 1.954.212 4.147.618 6.58 1.219 2.433.601 4.421 1.571 5.963 2.913 1.542 1.343 2.314 2.967 2.314 4.872 0 1.812-.565 3.692-1.696 5.642s-2.69 2.925-4.678 2.925c-.822 0-2.57-.65-5.243-1.953-2.673-1.301-5.621-1.953-8.842-1.953-3.427 0-5.997.601-7.711 1.799-1.714 1.2-2.57 2.657-2.57 4.37 0 1.577.806 3.017 2.416 4.318 1.61 1.303 3.615 2.416 6.015 3.341 2.398.925 5.021 2.126 7.865 3.599 2.843 1.475 5.465 3.084 7.865 4.832 2.398 1.748 4.402 4.199 6.014 7.351 1.609 3.153 2.416 6.752 2.416 10.796-.002 7.064-2.366 12.566-7.096 16.503zm69.397-62.567l-19.122 62.714c-.55 1.714-1.8 3.033-3.753 3.959-1.953.926-4.199 1.388-6.734 1.388-2.537 0-4.78-.462-6.734-1.388-1.953-.926-3.204-2.245-3.753-3.959l-19.226-62.714c-.138-.547-.205-.926-.205-1.131 0-1.781 1.113-3.323 3.341-4.626 2.227-1.301 4.539-1.953 6.94-1.953 2.946 0 4.693.995 5.243 2.981l14.394 52.742 14.29-52.742c.548-1.987 2.296-2.981 5.243-2.981 2.399 0 4.712.652 6.941 1.953 2.227 1.303 3.341 2.845 3.341 4.626 0 .206-.069.584-.206 1.131zm55.825 43.799c0 8.363-2.298 14.497-6.889 18.403-4.592 3.907-10.728 5.86-18.403 5.86-7.609 0-13.709-1.953-18.3-5.86-4.593-3.907-6.889-10.04-6.889-18.403v-27.246c0-8.361 2.278-14.496 6.837-18.403 4.558-3.907 10.503-5.86 17.838-5.86 7.538 0 13.726 1.817 18.557 5.449 4.832 3.634 7.248 8.636 7.248 15.011 0 2.948-.616 4.953-1.851 6.014-1.233 1.064-3.289 1.593-6.168 1.593-5.278 0-7.952-1.609-8.02-4.833 0-.959-.035-1.764-.103-2.416-.069-.651-.274-1.456-.616-2.417-.344-.959-.823-1.712-1.439-2.262-.616-.547-1.526-1.044-2.725-1.491-1.2-.444-2.622-.667-4.267-.667-6.168 0-9.253 3.427-9.253 10.28v27.246c.002 6.855 3.051 10.281 9.153 10.281 6.168 0 9.253-3.427 9.253-10.28v-3.496h-6.066c-1.508 0-2.69-.599-3.547-1.799-.858-1.199-1.285-2.656-1.285-4.369 0-1.576.444-2.998 1.336-4.267.891-1.268 2.056-1.902 3.496-1.902h17.272c1.507 0 2.69.498 3.548 1.491.856.995 1.285 2.177 1.285 3.547v10.796z"/></symbol><symbol viewBox="0 0 32 32" id="svg-primer" xmlns="http://www.w3.org/2000/svg"><path d="M26.443 13.15l-11.286 11.3-2.606-2.606 11.293-11.293 2.6 2.6zm.707-.707l1.73-1.731c.39-.39.386-1.025-.006-1.416l-1.18-1.177a1.001 1.001 0 00-1.416-.003L24.55 9.843l2.599 2.6zM11.904 22.61l-.64 3.113 3.135-.618-2.495-2.495zM22 11V8.004C22 6.897 21.11 6 20.003 6H19v.995A2.001 2.001 0 0116.997 9H8.003A2.002 2.002 0 016 6.995V6H4.997C3.894 6 3 6.89 3 8.004v20.992C3 30.103 3.89 31 4.997 31h15.006C21.106 31 22 30.11 22 28.996V19l7.58-7.58a2.003 2.003 0 00.01-2.83l-1.18-1.18a1.994 1.994 0 00-2.83.01L22 11zM10 5V3.998C10 2.898 10.898 2 12.005 2h.99C14.106 2 15 2.894 15 3.998V5h2.004c.551 0 .996.447.996.999v1.002a.994.994 0 01-.996.999H7.996A.997.997 0 017 7.001V5.999C7 5.443 7.446 5 7.996 5H10zm2.5 0a.5.5 0 100-1 .5.5 0 000 1z" fill="#157EFB" fill-rule="evenodd"/></symbol><symbol viewBox="0 0 512 512" id="svg_(1)" xmlns="http://www.w3.org/2000/svg"><path clip-rule="evenodd" d="M126.823 331.366H64.06c-10.711 0-19.462 8.76-19.462 19.448v131.767c0 10.688 8.751 19.419 19.462 19.419h295.83c10.711 0 19.491-8.732 19.491-19.419V350.814c0-10.688-8.779-19.448-19.491-19.448z" fill="#66e0f7" fill-rule="evenodd"/><path clip-rule="evenodd" d="M356.991 10v66.592c0 15.365 12.615 27.952 28.015 27.952h82.396z" fill="#ccf5fc" fill-rule="evenodd"/><path clip-rule="evenodd" d="M171.544 226.049v44.367h44.465v-44.367h-19.831zm147.631-103.248h-44.466v44.367h44.466v-19.646zm59.012 103.248v44.367h44.465v-44.367h-24.633z" fill="#a0e5a5" fill-rule="evenodd"/><path clip-rule="evenodd" d="M356.991 10H142.308c-8.524 0-15.485 6.946-15.485 15.45v305.916h233.066c10.711 0 19.491 8.76 19.491 19.448v126.834h72.537c8.524 0 15.485-6.946 15.485-15.45V104.545h-82.396c-15.399 0-28.015-12.587-28.015-27.952zm41.028 216.049h24.634v44.366h-44.465v-44.366zm-123.31-78.47v-24.777h44.465v44.366h-44.465zm-103.165 78.47h44.465v44.366h-44.465z" fill="#fff" fill-rule="evenodd"/><path d="M477.397 104.371a6.206 6.206 0 00-.023-.469 9.992 9.992 0 00-3.469-6.953L363.495 2.404a9.962 9.962 0 00-5.541-2.337 5.636 5.636 0 00-.963-.067H142.308c-14.052 0-25.485 11.417-25.485 25.45v98.06c0 5.522 4.477 10 10 10s10-4.478 10-10V25.45c0-3.005 2.46-5.45 5.485-5.45h204.683v56.592c0 20.928 17.054 37.953 38.015 37.953h72.396v347.652c0 3.006-2.461 5.451-5.485 5.451h-62.536V350.813c0-16.237-13.229-29.447-29.491-29.447H136.823V213.349c0-5.522-4.477-10-10-10s-10 4.478-10 10v108.018H64.06c-16.246 0-29.462 13.21-29.462 29.447v131.768C34.598 498.803 47.815 512 64.06 512h295.829c14.529 0 26.629-10.538 29.044-24.352h62.983c14.053 0 25.485-11.417 25.485-25.451V104.545c.001-.062-.002-.115-.004-.174zm-92.391-9.826c-9.934 0-18.015-8.054-18.015-17.953V31.729l73.358 62.816zm-15.625 388.036c0 5.193-4.258 9.419-9.491 9.419H64.06c-5.218 0-9.462-4.226-9.462-9.419V350.813c0-5.209 4.245-9.447 9.462-9.447h295.829c5.145 0 9.491 4.326 9.491 9.447v131.768z"/><path d="M319.175 112.802H274.71c-5.522 0-10 4.478-10 10v17.045c-36.551 10.888-65.404 39.717-76.266 76.202h-16.899c-5.523 0-10 4.478-10 10v44.367c0 5.522 4.477 10 10 10h44.465c5.523 0 10-4.478 10-10v-44.367c0-5.522-4.477-10-10-10h-6.485c9.422-25.446 29.685-45.687 55.185-55.121v6.24c0 5.522 4.478 10 10 10h44.465c5.522 0 10-4.478 10-10v-6.352c25.671 9.37 46.06 29.658 55.507 55.233h-6.495c-5.522 0-10 4.478-10 10v44.367c0 5.522 4.478 10 10 10h44.465c5.522 0 10-4.478 10-10v-44.367c0-5.522-4.478-10-10-10h-16.894c-10.878-36.625-39.852-65.487-76.583-76.287v-16.96c0-5.523-4.478-10-10-10zM206.01 260.416h-24.465v-24.367h14.606l.036.002.045-.002h9.777v24.367zm103.165-113.03v9.781H284.71v-24.366h24.465zm79.012 88.663h9.777l.045.002.036-.002h14.606v24.367h-24.465v-24.367zM128.396 406.697h-4.773c-6.283 0-11.395-5.103-11.395-11.375 0-6.257 5.111-11.347 11.395-11.347h25.202c5.523 0 10-4.478 10-10s-4.477-10-10-10h-25.202c-17.311 0-31.395 14.063-31.395 31.347 0 17.3 14.083 31.375 31.395 31.375h4.773c6.283 0 11.395 5.09 11.395 11.347s-5.111 11.348-11.395 11.348h-26.168c-5.523 0-10 4.478-10 10s4.477 10 10 10h26.168c17.311 0 31.395-14.063 31.395-31.348-.001-17.284-14.084-31.347-31.395-31.347zm187.483-2.352h-5.853c-5.522 0-10 4.478-10 10s4.478 10 10 10h5.853c3.893 0 7.871.846 7.871 7.122v7.229c0 2.646 0 10.695-11.337 10.695h-22.19c-7.152 0-7.474-7.529-7.474-7.605v-46.89c0-6.736 3.539-10.921 9.235-10.921h34.18c5.522 0 10-4.478 10-10s-4.478-10-10-10h-34.18c-16.94 0-29.235 13.004-29.235 30.921v46.89c0 11.463 8.523 27.605 27.474 27.605h22.19c18.743 0 31.337-12.336 31.337-30.695v-7.229c0-15.969-11.461-27.122-27.871-27.122zm-73.336-39.888c-5.255-1.692-10.891 1.198-12.583 6.454l-17.979 55.838-17.96-55.836c-1.691-5.257-7.325-8.146-12.582-6.457-5.258 1.691-8.149 7.324-6.458 12.582l27.475 85.416a10 10 0 009.518 6.938h.001a10 10 0 009.519-6.936l27.503-85.416c1.692-5.257-1.197-10.891-6.454-12.583zm-115.72-186.014c5.523 0 10-4.478 10-10v-.057c0-5.522-4.477-9.972-10-9.972s-10 4.506-10 10.028 4.477 10.001 10 10.001z"/></symbol></svg>